<?xml version="1.0" encoding="UTF-8" standalone="no"?>
<svg width="180px" height="180px" viewBox="0 0 180 180" version="1.1" xmlns="http://www.w3.org/2000/svg" xmlns:xlink="http://www.w3.org/1999/xlink">
    <!-- Generator: Sketch 39.1 (31720) - http://www.bohemiancoding.com/sketch -->
    <title>Combined Shape</title>
    <desc>Created with Sketch.</desc>
    <defs>
        <path d="M70.5373832,36.4673913 C73.4519326,36.4673913 75.8146417,34.1120198 75.8146417,31.2065217 C75.8146417,28.3010237 73.4519326,25.9456522 70.5373832,25.9456522 C67.6228338,25.9456522 65.2601246,28.3010237 65.2601246,31.2065217 C65.2601246,34.1120198 67.6228338,36.4673913 70.5373832,36.4673913 L70.5373832,36.4673913 L70.5373832,36.4673913 L70.5373832,36.4673913 Z M58.6635514,44.3586957 C61.5781008,44.3586957 63.94081,42.0033241 63.94081,39.0978261 C63.94081,36.1923281 61.5781008,33.8369565 58.6635514,33.8369565 C55.749002,33.8369565 53.3862928,36.1923281 53.3862928,39.0978261 C53.3862928,42.0033241 55.749002,44.3586957 58.6635514,44.3586957 L58.6635514,44.3586957 L58.6635514,44.3586957 L58.6635514,44.3586957 Z M48.1090343,54.8804348 C51.0235837,54.8804348 53.3862928,52.5250632 53.3862928,49.6195652 C53.3862928,46.7140672 51.0235837,44.3586957 48.1090343,44.3586957 C45.1944848,44.3586957 42.8317757,46.7140672 42.8317757,49.6195652 C42.8317757,52.5250632 45.1944848,54.8804348 48.1090343,54.8804348 L48.1090343,54.8804348 L48.1090343,54.8804348 L48.1090343,54.8804348 Z M40.1931464,143 C43.1076958,143 45.470405,140.644628 45.470405,137.73913 C45.470405,134.833632 43.1076958,132.478261 40.1931464,132.478261 C37.278597,132.478261 34.9158879,134.833632 34.9158879,137.73913 C34.9158879,140.644628 37.278597,143 40.1931464,143 L40.1931464,143 L40.1931464,143 L40.1931464,143 Z M40.1931464,68.0326087 C43.1076958,68.0326087 45.470405,65.6772372 45.470405,62.7717391 C45.470405,59.8662411 43.1076958,57.5108696 40.1931464,57.5108696 C37.278597,57.5108696 34.9158879,59.8662411 34.9158879,62.7717391 C34.9158879,65.6772372 37.278597,68.0326087 40.1931464,68.0326087 L40.1931464,68.0326087 L40.1931464,68.0326087 L40.1931464,68.0326087 Z M34.9158879,128.532609 C37.8304373,128.532609 40.1931464,126.177237 40.1931464,123.271739 C40.1931464,120.366241 37.8304373,118.01087 34.9158879,118.01087 C32.0013384,118.01087 29.6386293,120.366241 29.6386293,123.271739 C29.6386293,126.177237 32.0013384,128.532609 34.9158879,128.532609 L34.9158879,128.532609 L34.9158879,128.532609 L34.9158879,128.532609 Z M32.2772586,112.75 C35.191808,112.75 37.5545171,110.394628 37.5545171,107.48913 C37.5545171,104.583632 35.191808,102.228261 32.2772586,102.228261 C29.3627091,102.228261 27,104.583632 27,107.48913 C27,110.394628 29.3627091,112.75 32.2772586,112.75 L32.2772586,112.75 L32.2772586,112.75 L32.2772586,112.75 Z M34.9158879,82.5 C37.8304373,82.5 40.1931464,80.1446285 40.1931464,77.2391304 C40.1931464,74.3336324 37.8304373,71.9782609 34.9158879,71.9782609 C32.0013384,71.9782609 29.6386293,74.3336324 29.6386293,77.2391304 C29.6386293,80.1446285 32.0013384,82.5 34.9158879,82.5 L34.9158879,82.5 L34.9158879,82.5 L34.9158879,82.5 Z M32.2772586,96.9673913 C35.191808,96.9673913 37.5545171,94.6120198 37.5545171,91.7065217 C37.5545171,88.8010237 35.191808,86.4456522 32.2772586,86.4456522 C29.3627091,86.4456522 27,88.8010237 27,91.7065217 C27,94.6120198 29.3627091,96.9673913 32.2772586,96.9673913 L32.2772586,96.9673913 L32.2772586,96.9673913 L32.2772586,96.9673913 Z M83.7305296,32.5217391 C86.645079,32.5217391 89.0077882,30.1663676 89.0077882,27.2608696 C89.0077882,24.3553715 86.645079,22 83.7305296,22 C80.8159802,22 78.453271,24.3553715 78.453271,27.2608696 C78.453271,30.1663676 80.8159802,32.5217391 83.7305296,32.5217391 L83.7305296,32.5217391 Z M110.116822,36.4673913 C107.202273,36.4673913 104.839564,34.1120198 104.839564,31.2065217 C104.839564,28.3010237 107.202273,25.9456522 110.116822,25.9456522 C113.031372,25.9456522 115.394081,28.3010237 115.394081,31.2065217 C115.394081,34.1120198 113.031372,36.4673913 110.116822,36.4673913 L110.116822,36.4673913 Z M121.990654,44.3586957 C119.076105,44.3586957 116.713396,42.0033241 116.713396,39.0978261 C116.713396,36.1923281 119.076105,33.8369565 121.990654,33.8369565 C124.905204,33.8369565 127.267913,36.1923281 127.267913,39.0978261 C127.267913,42.0033241 124.905204,44.3586957 121.990654,44.3586957 L121.990654,44.3586957 Z M132.545171,54.8804348 C129.630622,54.8804348 127.267913,52.5250632 127.267913,49.6195652 C127.267913,46.7140672 129.630622,44.3586957 132.545171,44.3586957 C135.459721,44.3586957 137.82243,46.7140672 137.82243,49.6195652 C137.82243,52.5250632 135.459721,54.8804348 132.545171,54.8804348 L132.545171,54.8804348 Z M140.461059,143 C137.54651,143 135.183801,140.644628 135.183801,137.73913 C135.183801,134.833632 137.54651,132.478261 140.461059,132.478261 C143.375609,132.478261 145.738318,134.833632 145.738318,137.73913 C145.738318,140.644628 143.375609,143 140.461059,143 L140.461059,143 Z M140.461059,68.0326087 C137.54651,68.0326087 135.183801,65.6772372 135.183801,62.7717391 C135.183801,59.8662411 137.54651,57.5108696 140.461059,57.5108696 C143.375609,57.5108696 145.738318,59.8662411 145.738318,62.7717391 C145.738318,65.6772372 143.375609,68.0326087 140.461059,68.0326087 L140.461059,68.0326087 Z M145.738318,128.532609 C142.823768,128.532609 140.461059,126.177237 140.461059,123.271739 C140.461059,120.366241 142.823768,118.01087 145.738318,118.01087 C148.652867,118.01087 151.015576,120.366241 151.015576,123.271739 C151.015576,126.177237 148.652867,128.532609 145.738318,128.532609 L145.738318,128.532609 Z M148.376947,112.75 C145.462398,112.75 143.099688,110.394628 143.099688,107.48913 C143.099688,104.583632 145.462398,102.228261 148.376947,102.228261 C151.291496,102.228261 153.654206,104.583632 153.654206,107.48913 C153.654206,110.394628 151.291496,112.75 148.376947,112.75 L148.376947,112.75 Z M145.738318,82.5 C142.823768,82.5 140.461059,80.1446285 140.461059,77.2391304 C140.461059,74.3336324 142.823768,71.9782609 145.738318,71.9782609 C148.652867,71.9782609 151.015576,74.3336324 151.015576,77.2391304 C151.015576,80.1446285 148.652867,82.5 145.738318,82.5 L145.738318,82.5 Z M148.376947,96.9673913 C145.462398,96.9673913 143.099688,94.6120198 143.099688,91.7065217 C143.099688,88.8010237 145.462398,86.4456522 148.376947,86.4456522 C151.291496,86.4456522 153.654206,88.8010237 153.654206,91.7065217 C153.654206,94.6120198 151.291496,96.9673913 148.376947,96.9673913 L148.376947,96.9673913 Z M96.923676,32.5217391 C94.0091266,32.5217391 91.6464174,30.1663676 91.6464174,27.2608696 C91.6464174,24.3553715 94.0091266,22 96.923676,22 C99.8382254,22 102.200935,24.3553715 102.200935,27.2608696 C102.200935,30.1663676 99.8382254,32.5217391 96.923676,32.5217391 L96.923676,32.5217391 Z" id="path-1"></path>
        <filter x="-50%" y="-50%" width="200%" height="200%" filterUnits="objectBoundingBox" id="filter-2">
            <feOffset dx="2" dy="2" in="SourceAlpha" result="shadowOffsetOuter1"></feOffset>
            <feGaussianBlur stdDeviation="2.5" in="shadowOffsetOuter1" result="shadowBlurOuter1"></feGaussianBlur>
            <feColorMatrix values="0 0 0 0 0   0 0 0 0 0   0 0 0 0 0  0 0 0 0.1 0" type="matrix" in="shadowBlurOuter1"></feColorMatrix>
        </filter>
    </defs>
    <g id="Portfolio-Icons" stroke="none" stroke-width="1" fill="none" fill-rule="evenodd">
        <g id="Interactive-Outerwear">
            <g id="Combined-Shape">
                <use fill="black" fill-opacity="1" filter="url(#filter-2)" xlink:href="#path-1"></use>
                <use fill="#FFFFFF" fill-rule="evenodd" xlink:href="#path-1"></use>
            </g>
        </g>
    </g>
</svg>