<?xml version="1.0" encoding="UTF-8" standalone="no"?>
<svg width="180px" height="180px" viewBox="0 0 180 180" version="1.1" xmlns="http://www.w3.org/2000/svg" xmlns:xlink="http://www.w3.org/1999/xlink">
    <!-- Generator: Sketch 39.1 (31720) - http://www.bohemiancoding.com/sketch -->
    <title>Combined Shape</title>
    <desc>Created with Sketch.</desc>
    <defs>
        <path d="M90,146 C120.927946,146 146,120.927946 146,90 C146,59.072054 120.927946,34 90,34 C59.072054,34 34,59.072054 34,90 C34,120.927946 59.072054,146 90,146 Z M96.32,75.8 L96.32,120.92 L83.84,120.92 L83.84,75.8 L68,75.8 L68,65 L112.16,65 L112.16,75.8 L96.32,75.8 Z M107.56,114.52 C107.56,112.546657 108.239993,110.880007 109.6,109.52 C110.960007,108.159993 112.626657,107.48 114.6,107.48 C116.573343,107.48 118.239993,108.159993 119.6,109.52 C120.960007,110.880007 121.64,112.546657 121.64,114.52 C121.64,116.493343 120.960007,118.159993 119.6,119.52 C118.239993,120.880007 116.573343,121.56 114.6,121.56 C112.626657,121.56 110.960007,120.880007 109.6,119.52 C108.239993,118.159993 107.56,116.493343 107.56,114.52 Z" id="path-1"></path>
        <filter x="-50%" y="-50%" width="200%" height="200%" filterUnits="objectBoundingBox" id="filter-2">
            <feOffset dx="2" dy="2" in="SourceAlpha" result="shadowOffsetOuter1"></feOffset>
            <feGaussianBlur stdDeviation="2.5" in="shadowOffsetOuter1" result="shadowBlurOuter1"></feGaussianBlur>
            <feColorMatrix values="0 0 0 0 0   0 0 0 0 0   0 0 0 0 0  0 0 0 0.1 0" type="matrix" in="shadowBlurOuter1"></feColorMatrix>
        </filter>
    </defs>
    <g id="Portfolio-Icons" stroke="none" stroke-width="1" fill="none" fill-rule="evenodd">
        <g id="Taliessin">
            <g id="Combined-Shape">
                <use fill="black" fill-opacity="1" filter="url(#filter-2)" xlink:href="#path-1"></use>
                <use fill="#FFFFFF" fill-rule="evenodd" xlink:href="#path-1"></use>
            </g>
        </g>
    </g>
</svg>