<?xml version="1.0" encoding="UTF-8" standalone="no"?>
<svg width="180px" height="180px" viewBox="0 0 180 180" version="1.1" xmlns="http://www.w3.org/2000/svg" xmlns:xlink="http://www.w3.org/1999/xlink">
    <!-- Generator: Sketch 39.1 (31720) - http://www.bohemiancoding.com/sketch -->
    <title>[meta]</title>
    <desc>Created with Sketch.</desc>
    <defs>
        <path d="M33,107.455078 L33,72 L47.1855469,72 L47.1855469,74.7421875 L36.2695312,74.7421875 L36.2695312,104.730469 L47.1855469,104.730469 L47.1855469,107.455078 L33,107.455078 Z M49.1113281,100.916016 L49.1113281,81.28125 L51.9765625,81.28125 L51.9765625,85.78125 C52.8789108,83.8710842 53.7197227,82.552738 54.4990234,81.8261719 C55.2783242,81.0996057 56.0664023,80.7363281 56.8632812,80.7363281 C57.8125047,80.7363281 58.5771455,81.1083947 59.1572266,81.8525391 C59.7373076,82.5966834 60.0273438,83.65429 60.0273438,85.0253906 L60.0273438,86.0800781 C60.4140644,84.8847596 60.8798801,83.9150428 61.4248047,83.1708984 C61.9697293,82.4267541 62.5351533,81.8349631 63.1210938,81.3955078 C63.7070342,80.9560525 64.3808556,80.7363281 65.1425781,80.7363281 C65.9863323,80.7363281 66.7070283,81.0937464 67.3046875,81.8085938 C67.9023467,82.5234411 68.2011719,83.947255 68.2011719,86.0800781 L68.2011719,100.916016 L65.3359375,100.916016 L65.3359375,87.5039062 C65.3359375,86.4023382 65.3007816,85.6494161 65.2304688,85.2451172 C65.1601559,84.8408183 65.0195323,84.5332042 64.8085938,84.3222656 C64.5976552,84.1113271 64.3691419,84.0058594 64.1230469,84.0058594 C63.5136688,84.0058594 62.860355,84.471675 62.1630859,85.4033203 C61.4658168,86.3349656 60.7539099,87.8788955 60.0273438,90.0351562 L60.0273438,100.916016 L57.2851562,100.916016 L57.2851562,87.5214844 C57.2851562,85.7871007 57.1152361,84.7675796 56.7753906,84.4628906 C56.4355452,84.1582016 56.1308607,84.0058594 55.8613281,84.0058594 C55.2636689,84.0058594 54.6220737,84.5273385 53.9365234,85.5703125 C53.2509731,86.6132865 52.5976594,87.9492106 51.9765625,89.578125 L51.9765625,100.916016 L49.1113281,100.916016 Z M88.0214844,99.6152344 C85.4081901,100.857428 82.9355585,101.478516 80.6035156,101.478516 C78.8339755,101.478516 77.2519601,101.039067 75.8574219,100.160156 C74.4628837,99.2812456 73.3466839,98.0244222 72.5087891,96.3896484 C71.6708942,94.7548746 71.2519531,93.0058687 71.2519531,91.1425781 C71.2519531,89.3496004 71.6503866,87.6269614 72.4472656,85.9746094 C73.2441446,84.3222574 74.3574147,83.0361374 75.7871094,82.1162109 C77.216804,81.1962845 78.8105381,80.7363281 80.5683594,80.7363281 C82.9004023,80.7363281 84.7724539,81.5683511 86.1845703,83.2324219 C87.5966867,84.8964927 88.3027344,87.4628733 88.3027344,90.9316406 L88.3027344,91.6347656 L74.7675781,91.6347656 C74.7675781,92.9941474 75.051755,94.2363225 75.6201172,95.3613281 C76.1884794,96.4863338 76.9355422,97.3300753 77.8613281,97.8925781 C78.787114,98.4550809 79.841791,98.7363281 81.0253906,98.7363281 C83.1347762,98.7363281 85.4667841,98.0332102 88.0214844,96.6269531 L88.0214844,99.6152344 Z M74.9609375,89.1914062 L84.7519531,89.1914062 L84.7519531,88.7167969 C84.7519531,87.1113201 84.3593789,85.8339891 83.5742188,84.8847656 C82.7890586,83.9355421 81.7402409,83.4609375 80.4277344,83.4609375 C79.103509,83.4609375 77.9580126,83.9443311 76.9912109,84.9111328 C76.0244092,85.8779345 75.3476582,87.3046781 74.9609375,89.1914062 L74.9609375,89.1914062 Z M109.212891,100.125 C107.677727,100.769534 106.564457,101.15332 105.873047,101.276367 C105.181637,101.399415 104.513675,101.460938 103.869141,101.460938 C102.49804,101.460938 101.244146,101.197268 100.107422,100.669922 C98.9706974,100.142575 98.1123076,99.3632864 97.5322266,98.3320312 C96.9521455,97.3007761 96.6621094,95.707042 96.6621094,93.5507812 L96.6621094,85.640625 L91.7578125,85.640625 L91.7578125,82.9160156 L96.6621094,82.9160156 L96.6621094,75.0058594 L99.9316406,75.0058594 L99.9316406,82.9160156 L108.667969,82.9160156 L108.667969,85.640625 L99.9316406,85.640625 L99.9316406,93.4980469 C99.9316406,95.080086 100.119139,96.1962858 100.494141,96.8466797 C100.869142,97.4970736 101.370114,97.9746079 101.99707,98.2792969 C102.624027,98.5839859 103.36523,98.7363281 104.220703,98.7363281 C105.802742,98.7363281 107.466788,98.2382862 109.212891,97.2421875 L109.212891,100.125 Z M126.800781,96.5039062 C125.804683,98.1445395 124.606452,99.3808552 123.206055,100.212891 C121.805657,101.044926 120.519537,101.460938 119.347656,101.460938 C117.707023,101.460938 116.233405,100.75196 114.926758,99.3339844 C113.620111,97.9160085 112.966797,95.7656394 112.966797,92.8828125 C112.966797,90.6093636 113.400386,88.5791105 114.267578,86.7919922 C115.13477,85.0048739 116.294915,83.5927786 117.748047,82.5556641 C119.201179,81.5185495 120.999989,81 123.144531,81 C123.765628,81 124.703119,81.0644525 125.957031,81.1933594 C126.144532,81.216797 126.425779,81.2460936 126.800781,81.28125 L130.087891,81.28125 L130.087891,95.1503906 C130.087891,97.51759 130.333982,99.4394457 130.826172,100.916016 L127.416016,100.916016 C127.158202,99.8378852 126.953126,98.3671968 126.800781,96.5039062 L126.800781,96.5039062 Z M126.800781,92.6191406 L126.800781,84.1992188 C125.640619,83.8945297 124.562505,83.7421875 123.566406,83.7421875 C121.550771,83.7421875 119.872077,84.5214766 118.530273,86.0800781 C117.18847,87.6386797 116.517578,89.7597522 116.517578,92.4433594 C116.517578,94.3886816 116.883785,95.8564404 117.616211,96.8466797 C118.348636,97.836919 119.183589,98.3320312 120.121094,98.3320312 C121.14063,98.3320312 122.265619,97.8164114 123.496094,96.7851562 C124.726569,95.7539011 125.82812,94.3652431 126.800781,92.6191406 L126.800781,92.6191406 Z M147.640625,72 L147.640625,107.455078 L133.455078,107.455078 L133.455078,104.730469 L144.371094,104.730469 L144.371094,74.7421875 L133.455078,74.7421875 L133.455078,72 L147.640625,72 Z" id="path-1"></path>
        <filter x="-50%" y="-50%" width="200%" height="200%" filterUnits="objectBoundingBox" id="filter-2">
            <feOffset dx="2" dy="2" in="SourceAlpha" result="shadowOffsetOuter1"></feOffset>
            <feGaussianBlur stdDeviation="2.5" in="shadowOffsetOuter1" result="shadowBlurOuter1"></feGaussianBlur>
            <feColorMatrix values="0 0 0 0 0   0 0 0 0 0   0 0 0 0 0  0 0 0 0.1 0" type="matrix" in="shadowBlurOuter1"></feColorMatrix>
        </filter>
    </defs>
    <g id="Portfolio-Icons" stroke="none" stroke-width="1" fill="none" fill-rule="evenodd">
        <g id="This-Site">
            <g id="[meta]">
                <use fill="black" fill-opacity="1" filter="url(#filter-2)" xlink:href="#path-1"></use>
                <use fill="#FFFFFF" fill-rule="evenodd" xlink:href="#path-1"></use>
            </g>
        </g>
    </g>
</svg>